<?xml version="1.0" standalone="no"?>
<!DOCTYPE svg PUBLIC "-//W3C//DTD SVG 20010904//EN"
 "http://www.w3.org/TR/2001/REC-SVG-20010904/DTD/svg10.dtd">
<svg version="1.0" xmlns="http://www.w3.org/2000/svg"
 width="1024.000000pt" height="1024.000000pt" viewBox="0 0 1024.000000 1024.000000"
 preserveAspectRatio="xMidYMid meet">

<g transform="translate(0.000000,1024.000000) scale(0.100000,-0.100000)"
fill="#000000" stroke="none">
<path d="M4982 7030 c-138 -18 -273 -60 -407 -128 -297 -153 -523 -436 -612
-769 -24 -87 -27 -117 -27 -273 -1 -236 29 -371 122 -555 170 -337 491 -576
861 -640 109 -19 307 -19 412 0 430 80 784 381 923 786 48 141 59 213 60 374
0 170 -17 275 -66 413 -61 175 -150 316 -283 448 -222 221 -480 333 -800 348
-60 2 -143 1 -183 -4z m358 -77 c407 -72 765 -405 875 -814 74 -277 49 -540
-75 -795 -160 -330 -478 -564 -843 -624 -101 -16 -276 -12 -384 9 -172 34
-302 89 -438 186 -245 174 -408 426 -466 720 -22 111 -17 371 8 465 59 215
143 365 287 517 275 289 638 407 1036 336z"/>
<path d="M4992 6840 c-251 -35 -493 -171 -647 -363 -79 -98 -164 -266 -197
-387 -19 -72 -23 -109 -23 -250 1 -140 4 -178 24 -250 45 -169 127 -314 251
-444 213 -223 503 -331 818 -305 397 34 745 313 865 694 113 358 17 754 -246
1017 -180 179 -416 282 -671 292 -61 3 -139 1 -174 -4z m106 -999 l2 -944 -77
6 c-200 16 -413 119 -566 274 -118 120 -194 247 -244 410 -24 80 -27 103 -27
253 0 152 2 172 28 255 82 269 250 471 491 593 103 51 299 104 370 98 20 -1
20 -9 23 -945z m190 932 c22 -5 19 -10 -49 -79 -41 -41 -77 -74 -81 -74 -5 0
-8 24 -8 54 0 91 46 124 138 99z m146 -39 l48 -17 -158 -158 c-87 -88 -162
-159 -166 -159 -5 0 -8 25 -8 57 l0 56 117 119 c64 65 117 118 118 118 1 0 23
-7 49 -16z m186 -92 c0 -9 -453 -462 -462 -462 -5 0 -8 26 -8 57 l0 58 197
197 196 197 39 -20 c21 -11 38 -23 38 -27z m97 -67 l28 -24 -290 -291 c-159
-159 -293 -290 -297 -290 -5 0 -8 24 -8 52 l0 53 262 262 c145 145 266 263
270 263 4 0 20 -11 35 -25z m114 -106 l22 -31 -284 -284 -284 -284 -57 0 c-32
0 -58 3 -58 7 0 13 614 623 627 623 6 0 22 -14 34 -31z m109 -156 c0 -4 -98
-106 -217 -225 l-218 -218 -57 0 c-32 0 -58 3 -58 7 0 5 113 121 252 260 l252
252 23 -34 c13 -19 23 -38 23 -42z m70 -143 c0 -8 -64 -79 -142 -157 l-143
-143 -65 0 -65 0 190 190 190 190 17 -33 c9 -17 17 -39 18 -47z m39 -127 l10
-48 -62 -62 c-61 -63 -62 -63 -119 -63 -32 0 -58 3 -58 7 0 10 202 213 212
213 3 0 11 -21 17 -47z m21 -158 c0 -8 -7 -15 -15 -15 -16 0 -20 12 -8 23 11
12 23 8 23 -8z m0 -97 c0 -26 -18 -145 -26 -170 -3 -11 -15 -18 -30 -18 -39 0
-64 -16 -125 -81 -77 -81 -102 -81 -178 0 -65 68 -86 81 -136 81 -50 0 -83
-20 -138 -84 -40 -47 -53 -56 -81 -56 -27 0 -43 10 -90 61 -31 33 -70 65 -87
71 l-29 10 0 97 c0 54 3 101 7 104 3 4 210 7 460 7 l453 0 0 -22z m-410 -307
c66 -70 85 -81 142 -81 50 0 84 20 134 78 36 42 71 68 81 59 7 -8 -70 -169
-108 -224 -44 -64 -118 -143 -135 -143 -7 0 -34 25 -60 55 -94 109 -170 110
-273 3 -81 -84 -103 -84 -180 0 -31 34 -68 66 -83 72 l-28 10 0 110 c0 75 4
110 11 110 7 0 39 -29 73 -65 59 -62 63 -65 109 -65 63 0 81 10 148 81 74 79
94 79 169 0z m12 -304 l56 -62 -21 -18 c-117 -95 -332 -183 -477 -194 l-80 -6
0 166 c0 91 4 168 9 171 5 4 31 -19 58 -49 90 -103 173 -107 258 -12 86 96
112 96 197 4z"/>
<path d="M4618 6564 c-5 -4 -8 -34 -8 -66 0 -32 -6 -73 -14 -91 -18 -45 -78
-95 -123 -102 -64 -11 -63 -10 -63 -75 0 -45 4 -62 15 -66 22 -9 45 14 45 46
0 23 6 29 41 39 46 14 113 70 136 115 9 17 19 56 22 86 l6 55 34 -3 c33 -2
131 -49 131 -62 0 -3 -13 -19 -30 -35 -16 -16 -30 -39 -30 -51 0 -37 28 -36
71 3 l41 37 19 -24 c47 -62 65 -200 39 -313 -26 -119 -94 -253 -167 -328 -38
-40 -41 -72 -7 -77 54 -8 196 223 229 373 12 54 16 106 13 178 -3 93 -7 108
-37 165 -62 115 -176 192 -296 200 -33 2 -63 0 -67 -4z"/>
<path d="M4675 6258 c-2 -7 -5 -22 -7 -33 -2 -12 -14 -21 -33 -25 -70 -15
-133 -68 -162 -137 -7 -18 -13 -59 -13 -92 0 -84 54 -188 162 -309 169 -191
198 -228 218 -280 49 -129 -1 -254 -95 -237 -67 12 -102 95 -54 129 28 19 45
11 58 -25 11 -32 32 -37 51 -14 10 12 10 23 -2 53 -25 66 -115 75 -167 15 -20
-23 -23 -34 -19 -86 4 -53 8 -64 40 -93 72 -66 188 -50 239 32 21 34 24 51 24
129 0 79 -3 97 -28 146 -16 31 -59 90 -95 132 -37 42 -96 110 -132 150 -98
112 -133 177 -138 251 -3 51 0 66 20 96 27 40 82 80 109 80 14 0 19 -7 19 -25
0 -20 5 -25 24 -25 13 0 27 7 30 16 10 25 7 124 -4 145 -12 21 -38 26 -45 7z"/>
<path d="M3915 4299 c-9 -13 3 -26 29 -31 14 -2 43 -64 119 -256 85 -213 104
-252 120 -250 14 2 40 59 113 243 51 132 100 245 108 250 8 6 23 15 33 21 33
21 2 35 -73 32 -56 -2 -69 -6 -72 -20 -3 -13 3 -18 22 -18 14 0 27 -4 30 -8 3
-5 -26 -92 -64 -193 -39 -101 -71 -187 -72 -191 -3 -7 -135 334 -140 361 -2 8
8 20 22 27 14 7 25 19 25 26 0 17 -190 24 -200 7z"/>
<path d="M4593 4144 c-37 -18 -50 -30 -46 -40 4 -10 13 -14 27 -9 11 3 44 8
71 11 59 7 83 -11 87 -66 3 -33 3 -33 -62 -50 -116 -30 -149 -58 -150 -127 0
-33 7 -50 29 -75 26 -30 35 -33 85 -33 43 0 60 5 77 21 l21 21 23 -23 c28 -28
54 -30 95 -9 38 19 39 43 3 47 l-28 3 -5 140 c-4 113 -9 146 -23 168 -35 54
-121 63 -204 21z m147 -244 c0 -49 -4 -61 -22 -74 -27 -19 -79 -21 -96 -4 -19
19 -15 82 6 101 21 19 93 47 105 40 4 -2 7 -31 7 -63z"/>
<path d="M5191 4153 c-18 -9 -45 -35 -60 -57 l-26 -40 -3 52 c-3 51 -3 52 -35
51 -46 -1 -101 -23 -105 -42 -3 -13 4 -17 28 -17 l31 0 -3 -142 -3 -143 -27
-13 c-16 -7 -28 -20 -28 -28 0 -11 21 -14 115 -14 108 0 115 1 115 20 0 14 -7
20 -22 20 -13 0 -34 3 -47 7 -23 6 -23 8 -19 102 3 69 9 103 21 122 17 25 71
55 112 61 15 2 21 12 23 41 4 43 -11 47 -67 20z"/>
<path d="M5363 4153 c-55 -16 -70 -39 -30 -45 21 -3 22 -7 27 -143 5 -154 12
-174 66 -200 57 -27 107 -15 162 38 l32 31 0 -38 0 -39 45 7 c25 3 55 10 65
16 29 15 25 40 -5 40 l-25 0 0 176 0 177 -46 -6 c-60 -6 -66 -14 -49 -62 19
-53 19 -188 1 -223 -20 -38 -47 -61 -83 -68 -26 -5 -37 -1 -57 19 -26 26 -26
28 -26 182 0 118 -3 155 -12 154 -7 0 -37 -8 -65 -16z"/>
<path d="M5925 4155 c-60 -13 -75 -21 -75 -41 0 -9 11 -14 30 -14 l30 0 0
-138 c0 -142 -5 -162 -42 -162 -11 0 -18 -7 -18 -20 0 -20 5 -21 98 -18 77 2
97 6 97 18 0 8 -11 17 -25 20 -24 6 -25 8 -28 110 -2 63 2 115 9 132 26 63
106 90 144 48 13 -15 19 -42 23 -114 6 -122 -2 -164 -34 -176 -13 -5 -24 -16
-24 -25 0 -12 17 -15 100 -15 92 0 100 2 100 19 0 14 -8 21 -27 23 l-28 3 -5
145 c-4 116 -8 150 -23 171 -46 69 -159 65 -216 -7 l-21 -27 0 29 c0 47 -9 52
-65 39z"/>
<path d="M5410 3455 c0 -8 5 -15 10 -15 6 0 10 7 10 15 0 8 -4 15 -10 15 -5 0
-10 -7 -10 -15z"/>
<path d="M3436 3451 c-6 -9 -76 -174 -76 -178 0 -2 4 -3 9 -3 5 0 14 14 21 30
11 27 17 30 57 30 41 0 46 -3 56 -30 10 -27 27 -41 27 -23 0 17 -74 183 -81
183 -4 0 -10 -4 -13 -9z m30 -57 c18 -43 16 -46 -24 -42 l-30 3 15 38 c8 20
17 37 20 37 2 0 11 -16 19 -36z"/>
<path d="M4899 3438 c32 -82 71 -163 79 -166 5 -1 18 19 29 45 l21 48 20 -47
c12 -27 25 -48 30 -48 11 0 86 179 78 187 -8 9 -9 8 -41 -72 -16 -38 -32 -74
-35 -78 -4 -5 -15 10 -24 33 -14 36 -15 44 -1 76 18 43 18 44 6 44 -5 0 -14
-15 -21 -32 l-11 -33 -16 35 c-8 19 -17 30 -20 23 -2 -7 0 -21 6 -32 15 -28
14 -57 -5 -93 l-16 -31 -33 78 c-18 44 -38 81 -44 83 -8 3 -8 -3 -2 -20z"/>
<path d="M3780 3313 c0 -62 4 -103 10 -103 6 0 10 19 10 42 0 33 3 39 12 30
18 -18 63 -14 81 6 23 25 22 85 -1 105 -20 19 -59 22 -82 7 -9 -6 -17 -5 -22
3 -4 7 -8 -34 -8 -90z m85 81 c25 -10 37 -50 23 -79 -25 -55 -88 -33 -88 31 0
42 27 62 65 48z"/>
<path d="M4172 3310 c1 -58 3 -86 5 -62 4 40 15 53 28 32 12 -19 63 -11 79 12
36 51 8 118 -49 118 -19 0 -37 -5 -41 -11 -4 -8 -9 -7 -15 2 -5 8 -8 -29 -7
-91z m90 73 c25 -23 23 -68 -4 -87 -29 -20 -34 -20 -58 4 -27 27 -26 65 2 84
28 20 37 20 60 -1z"/>
<path d="M4554 3396 c-11 -30 1 -50 36 -59 46 -11 56 -22 40 -42 -14 -16 -34
-16 -75 1 -18 7 -18 6 -6 -9 17 -21 74 -22 95 -1 22 21 4 53 -34 61 -16 3 -34
11 -40 18 -16 20 14 39 51 31 18 -3 28 -2 24 4 -10 16 -85 12 -91 -4z"/>
<path d="M5410 3340 c0 -40 4 -70 10 -70 6 0 10 30 10 70 0 40 -4 70 -10 70
-6 0 -10 -30 -10 -70z"/>
<path d="M5692 3340 c1 -74 1 -74 7 -21 7 52 27 81 58 81 19 0 33 -34 33 -84
0 -28 5 -46 11 -46 12 0 6 111 -7 131 -7 12 -55 11 -74 -1 -9 -6 -17 -5 -22 3
-4 7 -7 -22 -6 -63z"/>
<path d="M6070 3383 c-23 -30 -21 -65 7 -95 18 -21 73 -24 91 -6 21 21 13 29
-13 12 -28 -18 -60 -11 -75 17 -10 18 -7 19 50 19 56 0 60 1 60 23 0 58 -82
78 -120 30z m98 -10 c14 -23 14 -23 -42 -23 -58 0 -60 3 -33 38 15 19 58 10
75 -15z"/>
<path d="M6440 3340 c0 -81 18 -95 22 -17 2 43 7 54 26 62 12 5 22 13 22 17 0
12 -25 9 -38 -4 -9 -9 -12 -9 -12 0 0 7 -4 12 -10 12 -6 0 -10 -30 -10 -70z"/>
<path d="M6771 3344 c29 -64 33 -114 9 -114 -6 0 -10 -4 -10 -10 0 -5 6 -10
14 -10 8 0 30 41 54 100 22 55 37 100 32 100 -4 0 -19 -27 -32 -61 l-25 -61
-26 61 c-15 34 -31 61 -36 61 -5 0 4 -30 20 -66z"/>
</g>
</svg>
